<svg width="56" height="56" xmlns="http://www.w3.org/2000/svg" xmlns:xlink="http://www.w3.org/1999/xlink"><defs><path d="M0 13h46v19a2 2 0 0 1-2 2H2a2 2 0 0 1-2-2V13z" id="a"/><mask id="b" maskContentUnits="userSpaceOnUse" maskUnits="objectBoundingBox" x="0" y="0" width="46" height="21" fill="#fff"><use xlink:href="#a"/></mask></defs><g fill="none" fill-rule="evenodd"><g transform="translate(5 11)"><rect stroke="#CCC" fill="#FFF" x=".5" y=".5" width="45" height="33" rx="2"/><use stroke="#CCC" mask="url(#b)" stroke-width="2" fill="#F2F2F2" stroke-dasharray="3" xlink:href="#a"/><path d="M25.857 20.429h-2.286v-2.286A.143.143 0 0 0 23.43 18h-.858a.143.143 0 0 0-.142.143v2.286h-2.286a.143.143 0 0 0-.143.142v.858c0 .078.064.142.143.142h2.286v2.286c0 .079.064.143.142.143h.858a.143.143 0 0 0 .142-.143v-2.286h2.286A.143.143 0 0 0 26 21.43v-.858a.143.143 0 0 0-.143-.142z"/></g><rect fill="#333" x="8" y="18" width="12" height="2" rx="1"/><rect fill="#999" x="8" y="14" width="6" height="2" rx="1"/><rect fill="#999" x="20" y="14" width="6" height="2" rx="1"/><rect fill="#333" x="38" y="14" width="5" height="2" rx="1"/><rect fill="#999" x="44" y="14" width="5" height="2" rx="1"/><path stroke="#979797" d="m16.264 14 1.236 1-1.236 1"/></g></svg>